<?xml version="1.0" standalone="no"?>
<!DOCTYPE svg PUBLIC "-//W3C//DTD SVG 20010904//EN"
 "http://www.w3.org/TR/2001/REC-SVG-20010904/DTD/svg10.dtd">
<svg version="1.0" xmlns="http://www.w3.org/2000/svg"
 width="1024.000000pt" height="1024.000000pt" viewBox="0 0 1024.000000 1024.000000"
 preserveAspectRatio="xMidYMid meet">
<metadata>
Created by potrace 1.14, written by Peter Selinger 2001-2017
</metadata>
<g transform="translate(0.000000,1024.000000) scale(0.100000,-0.100000)"
fill="#000000" stroke="none">
<path d="M4918 9174 c-199 -36 -408 -154 -541 -307 -109 -124 -178 -257 -218
-420 -12 -45 -22 -84 -24 -86 -2 -2 -16 6 -32 16 -40 28 -119 59 -184 73 -88
20 -257 8 -347 -23 -74 -26 -303 -125 -461 -199 -47 -22 -115 -53 -149 -69
l-64 -29 -449 0 c-423 0 -452 -1 -487 -19 -87 -45 -102 -156 -39 -283 36 -71
143 -225 253 -360 l55 -68 -62 -70 c-96 -107 -183 -232 -167 -241 10 -5 14
-52 16 -187 l3 -179 -58 -24 c-33 -13 -78 -43 -105 -69 -48 -46 -48 -46 -48
-113 l0 -67 -106 0 c-86 0 -105 -3 -101 -14 3 -7 0 -20 -6 -27 -7 -7 -3 -6 9
4 26 21 40 22 48 1 7 -19 -32 -64 -56 -64 -25 0 -23 -37 2 -45 12 -4 60 -6
108 -6 48 0 132 -3 187 -7 l100 -7 7 -40 c14 -82 37 -75 -237 -75 -174 0 -245
3 -245 11 0 25 -34 -19 -61 -78 -32 -71 -44 -76 -108 -44 -131 67 -174 242
-81 326 54 49 61 112 17 153 -75 68 -176 18 -241 -118 -28 -59 -31 -74 -31
-160 0 -86 3 -101 32 -163 54 -113 154 -205 267 -243 25 -9 46 -17 46 -19 0
-2 -9 -41 -20 -87 -95 -403 -106 -946 -30 -1394 42 -242 118 -517 205 -742 89
-227 264 -547 394 -721 l41 -55 0 -100 c0 -137 11 -170 73 -231 58 -57 105
-75 191 -75 l56 0 91 -85 c287 -268 516 -439 824 -616 328 -187 745 -346 1110
-423 334 -70 680 -96 998 -77 537 32 991 149 1446 371 357 175 651 383 996
706 l130 122 85 4 c135 6 241 65 293 163 17 32 22 65 26 165 l6 125 77 126
c276 452 449 951 515 1479 25 204 25 678 0 875 -54 419 -138 756 -274 1098
l-55 138 81 84 81 85 0 54 c0 47 -5 61 -35 100 -19 26 -35 49 -35 53 0 4 34
41 75 84 44 44 75 85 75 97 0 29 -48 82 -74 82 -14 0 -50 -28 -100 -77 -74
-73 -79 -76 -92 -57 -79 109 -143 130 -241 79 -21 -10 -50 -15 -85 -13 l-52 3
-94 109 -93 108 23 28 c292 357 344 444 336 563 -5 66 -27 103 -79 129 -31 16
-76 18 -495 18 l-461 0 -184 89 c-400 192 -506 232 -648 239 -126 6 -189 -7
-295 -59 -43 -22 -79 -38 -80 -37 -1 2 -12 44 -24 93 -45 178 -159 369 -293
489 -218 197 -532 284 -831 230z m365 -210 c409 -105 660 -522 560 -929 -47
-192 -179 -371 -344 -468 -209 -122 -505 -135 -726 -31 -194 92 -345 270 -405
479 -30 105 -32 296 -5 395 98 358 411 592 770 574 49 -2 116 -11 150 -20z
m-1391 -715 c70 -15 150 -55 202 -100 36 -32 42 -44 45 -81 3 -57 53 -204 98
-290 99 -189 249 -329 457 -429 l86 -41 0 -104 0 -103 -47 -6 c-84 -11 -255
-46 -322 -67 -98 -29 -249 -113 -302 -167 -69 -70 -88 -103 -111 -193 -20 -79
-21 -142 -3 -228 2 -14 -5 2 -17 35 -18 50 -21 83 -21 200 -1 123 2 150 25
225 15 47 26 85 25 86 -1 0 -65 -3 -142 -6 -77 -4 -206 -4 -286 1 -90 5 -160
4 -180 -1 -41 -12 -52 -12 -46 -2 3 4 -35 8 -83 9 -99 3 -227 36 -319 82 -32
17 -102 60 -156 98 l-98 68 54 7 c30 3 126 7 214 8 182 2 180 10 -10 35 -244
32 -379 81 -485 175 -19 17 -54 45 -77 62 -24 17 -43 35 -43 39 0 5 91 10 203
11 194 3 199 3 132 15 -194 34 -339 79 -415 129 -35 23 -180 191 -180 208 0 3
198 6 439 6 l439 0 194 91 c263 123 454 206 519 223 66 18 141 20 211 5z
m2643 -14 c74 -26 276 -116 484 -216 l184 -89 455 0 454 0 -19 -29 c-10 -17
-48 -63 -85 -103 -96 -108 -161 -136 -428 -192 -164 -34 -164 -34 35 -36 105
-1 198 -2 208 -1 9 1 17 -2 17 -8 0 -15 -82 -72 -113 -78 -18 -4 -24 -9 -17
-13 16 -10 -29 -52 -95 -90 -84 -48 -283 -89 -523 -107 -124 -10 -59 -23 118
-24 91 -1 192 -4 225 -8 l60 -6 -55 -40 c-239 -174 -316 -199 -655 -212 -235
-9 -469 -8 -549 2 -44 5 -48 4 -41 -12 43 -104 48 -133 53 -258 2 -76 -1 -140
-7 -155 -8 -22 -10 -19 -10 26 -1 54 -28 145 -56 188 -44 67 -163 164 -256
208 -116 56 -278 97 -416 105 l-93 6 0 113 c0 98 2 114 16 114 9 0 51 15 93
33 273 119 481 382 537 683 17 85 19 91 58 120 131 98 284 127 421 79z m-1420
-956 l105 0 0 -459 c0 -316 -3 -461 -11 -465 -6 -4 -48 -9 -94 -11 -140 -7
-309 -74 -340 -135 -35 -66 -4 -129 85 -174 27 -14 122 -45 212 -70 247 -69
363 -115 475 -189 171 -113 249 -236 247 -386 -2 -85 -22 -159 -23 -82 -2 86
-64 165 -191 241 -195 116 -310 153 -671 215 -180 31 -349 82 -424 127 -83 50
-178 154 -205 226 -31 82 -25 188 15 262 41 75 130 153 229 201 112 54 204 73
334 68 l102 -5 0 317 c0 174 3 320 7 323 4 4 15 5 25 1 10 -3 65 -5 123 -5z
m-2655 -87 c0 -9 -67 -82 -75 -82 -4 0 11 20 32 45 39 47 43 50 43 37z m5344
-87 c31 -38 62 -77 69 -85 8 -8 19 -25 26 -37 10 -20 7 -26 -26 -57 -43 -40
-63 -45 -63 -16 0 11 6 20 14 20 7 0 20 8 27 17 8 9 9 14 3 10 -7 -4 -10 7 -9
36 2 32 -3 48 -21 67 -13 13 -24 19 -24 12 0 -6 -5 -12 -12 -12 -9 0 -9 3 -1
11 9 9 8 18 -4 35 -8 13 -19 22 -23 19 -4 -2 -16 5 -26 17 -17 19 -17 21 -1
15 9 -4 17 -2 17 3 0 6 -4 10 -10 10 -5 0 -10 5 -10 12 0 15 4 11 74 -77z
m-5309 55 c10 -11 14 -20 9 -20 -5 0 -15 9 -22 20 -7 11 -11 20 -9 20 2 0 12
-9 22 -20z m5221 4 c-4 -9 -1 -24 6 -32 11 -14 10 -14 -7 -5 -16 10 -25 6 -52
-22 -40 -41 -42 -53 -5 -30 l27 18 -24 -27 c-18 -19 -27 -23 -32 -14 -6 9 -13
8 -28 -6 -11 -10 -18 -23 -15 -28 3 -5 -2 -19 -13 -30 -18 -21 -18 -21 2 -14
16 6 18 5 8 -5 -10 -10 -16 -10 -24 -2 -9 9 -8 16 5 28 26 26 18 31 -9 5 -13
-12 -22 -27 -18 -33 3 -6 2 -7 -4 -4 -5 4 -20 -5 -31 -18 -12 -14 -17 -25 -12
-25 6 0 10 -5 10 -11 0 -6 -9 -8 -20 -4 -14 5 -20 2 -20 -10 0 -9 -4 -14 -9
-10 -6 3 -15 -4 -21 -15 -6 -11 -8 -20 -4 -20 3 0 1 -6 -6 -14 -6 -8 -18 -12
-25 -10 -7 3 -19 -4 -25 -16 -6 -11 -14 -19 -18 -16 -4 2 -18 -4 -31 -13 l-23
-18 30 2 c17 1 29 -2 26 -6 -2 -4 -18 -6 -35 -4 -31 4 -119 -31 -119 -47 0 -4
-7 -4 -17 -1 -9 4 -14 2 -11 -3 4 -5 -4 -9 -15 -10 -12 -1 -56 -10 -97 -22
-103 -27 -232 -42 -377 -42 l-122 0 -6 -47 c-18 -126 -46 -236 -81 -313 -21
-47 -43 -88 -49 -92 -5 -4 -7 -8 -3 -8 16 0 -91 -130 -142 -171 -29 -24 -76
-76 -103 -114 -27 -39 -69 -89 -94 -112 -24 -22 -40 -44 -35 -47 6 -3 12 -3
15 1 2 5 2 3 1 -4 -4 -16 19 -73 29 -73 5 0 6 15 2 33 -5 27 -4 29 6 14 6 -11
9 -31 6 -45 -3 -15 0 -49 6 -77 6 -27 10 -53 9 -57 -1 -4 4 -5 12 -2 9 3 18
-6 24 -26 7 -18 7 -28 2 -25 -6 4 -10 -2 -10 -12 0 -15 -2 -16 -10 -3 -7 10
-10 -6 -10 -55 0 -38 -5 -101 -9 -138 -9 -64 -12 -72 -64 -126 -61 -64 -91
-117 -107 -188 -12 -52 -24 -214 -21 -278 1 -22 3 -112 4 -200 2 -156 1 -162
-27 -230 -15 -38 -37 -86 -47 -106 -10 -20 -15 -40 -11 -44 4 -5 1 -5 -5 -1
-12 7 -17 -5 -16 -40 0 -6 -7 -11 -15 -10 -9 0 -18 -8 -20 -19 -4 -17 -2 -18
12 -6 14 12 16 12 10 -3 -4 -11 -13 -15 -25 -11 -13 5 -19 1 -19 -10 0 -9 -5
-13 -11 -9 -6 3 -4 -7 4 -22 8 -16 21 -55 28 -86 7 -31 16 -55 20 -53 3 3 6
-69 6 -160 0 -91 -3 -162 -7 -160 -4 3 -10 -12 -14 -33 -3 -20 -23 -72 -45
-115 -21 -43 -37 -86 -35 -95 3 -16 41 -387 65 -632 5 -58 16 -163 24 -235 8
-71 15 -161 17 -200 l3 -70 -135 3 c-74 2 -186 1 -247 -3 l-113 -7 -32 -61
c-65 -122 -135 -167 -235 -152 -41 6 -55 14 -98 59 -27 29 -61 76 -74 104
l-24 52 -76 2 c-42 1 -155 2 -253 3 -165 0 -209 6 -180 24 7 4 19 79 32 197
35 336 72 718 74 761 1 24 5 46 9 49 4 4 7 21 7 38 0 17 4 45 9 61 7 24 4 37
-14 63 -12 17 -25 29 -28 25 -11 -10 -8 -25 3 -18 6 4 7 -1 3 -11 -5 -13 -3
-15 7 -9 9 6 11 4 5 -5 -6 -10 -12 -7 -26 11 -20 26 -25 44 -10 35 18 -12 18
20 0 56 -68 135 -68 381 0 540 17 42 18 68 1 68 -4 0 -6 -8 -3 -18 2 -10 -2
-34 -10 -53 l-14 -34 0 37 c1 23 4 33 9 25 5 -8 8 -4 8 11 0 12 -6 22 -12 22
-9 0 -8 3 2 10 12 8 11 12 -7 32 -39 41 -94 151 -120 238 -36 119 -38 297 -4
415 13 44 26 88 29 98 3 13 -10 34 -40 65 -86 90 -148 196 -193 331 -26 80
-27 91 -22 215 5 116 15 170 43 240 4 11 4 17 -2 14 -5 -4 -9 15 -10 40 0 26
1 41 4 33 3 -10 8 -8 17 9 10 19 13 20 18 6 4 -10 3 -15 -3 -11 -11 7 -14 -8
-3 -18 3 -4 12 1 19 11 11 14 9 21 -8 40 -27 28 -38 28 -30 0 5 -19 4 -20 -10
-7 -12 10 -13 18 -5 27 6 8 6 16 1 20 -5 4 -24 21 -42 37 -18 17 -31 23 -29
15 2 -8 2 -12 0 -7 -3 4 -10 4 -16 0 -7 -4 -6 1 2 11 13 15 9 22 -35 68 -67
71 -73 77 -91 104 -8 13 -18 22 -22 19 -4 -2 -8 2 -8 9 0 7 -15 35 -33 62 -18
27 -41 60 -50 74 -22 33 -74 172 -90 238 -7 29 -15 85 -19 125 l-6 72 -170 7
c-115 4 -202 14 -270 28 -55 12 -110 23 -122 24 -11 0 -19 4 -16 9 2 4 -4 7
-14 7 -11 0 -24 5 -31 12 -8 8 -12 9 -12 1 0 -6 7 -19 16 -27 8 -9 11 -16 6
-16 -6 0 -20 15 -31 34 -12 18 -54 65 -94 102 -111 106 -241 161 -386 165
l-46 1 50 9 c28 5 55 7 60 5 18 -6 10 53 -10 71 -19 18 -19 18 -1 -4 11 -13
15 -23 10 -23 -13 0 -36 39 -29 50 4 6 0 10 -7 10 -7 0 -19 9 -26 20 -21 35
-1 22 57 -35 90 -88 153 -132 263 -185 100 -47 252 -97 373 -121 33 -6 169
-14 302 -18 l243 -6 4 -125 c8 -228 65 -362 231 -541 38 -42 101 -111 139
-153 38 -43 92 -95 121 -117 l53 -40 -52 -83 c-72 -115 -91 -182 -90 -326 0
-92 5 -127 22 -174 55 -151 152 -263 310 -362 1 -1 -13 -26 -33 -55 -68 -103
-101 -234 -89 -348 14 -140 88 -287 190 -381 l45 -41 -36 -58 c-51 -82 -74
-149 -81 -238 -13 -160 42 -290 176 -416 l80 -75 -35 -74 c-20 -42 -39 -103
-46 -146 -29 -192 69 -397 234 -492 29 -16 55 -30 60 -30 4 0 7 84 7 186 0
103 4 194 10 204 9 17 69 60 84 60 3 0 6 -199 6 -443 0 -503 2 -516 59 -437
17 23 45 73 63 109 27 56 32 80 36 162 l4 95 46 25 c62 32 152 126 190 197 87
163 89 380 5 545 l-24 49 23 16 c49 34 139 127 164 169 102 175 92 396 -27
564 l-18 26 45 44 c25 24 65 73 89 109 122 183 132 415 26 616 l-38 74 52 40
c93 71 184 205 226 330 17 52 22 89 22 180 0 104 -3 123 -30 196 -17 45 -47
107 -67 138 -20 31 -36 60 -36 64 1 4 26 23 56 42 68 43 345 335 393 414 73
122 111 263 111 414 l0 90 253 5 c181 4 273 10 327 22 112 25 277 82 346 120
94 51 222 150 289 221 62 67 71 74 61 48z m-5246 -8 c0 -3 -4 -8 -10 -11 -5
-3 -10 -1 -10 4 0 6 5 11 10 11 6 0 10 -2 10 -4z m-96 -71 c-4 -8 -11 -15 -16
-15 -6 0 -7 -7 -4 -16 3 -9 2 -12 -5 -9 -5 4 -18 1 -27 -6 -9 -7 -1 4 17 24
39 41 43 44 35 22z m179 -62 c-7 -2 -19 -2 -25 0 -7 3 -2 5 12 5 14 0 19 -2
13 -5z m5855 -70 c104 -110 107 -116 86 -148 -17 -25 -57 -54 -52 -37 2 5 -25
39 -59 77 -35 37 -63 71 -63 76 0 5 -7 6 -16 2 -8 -3 -13 -12 -10 -20 3 -8 2
-11 -4 -8 -5 3 -37 -20 -70 -52 -34 -32 -66 -60 -72 -62 -12 -4 -68 48 -68 64
0 6 40 50 89 98 80 79 92 87 127 87 36 0 45 -7 112 -77z m-6096 35 c-5 -7 -10
-17 -10 -23 0 -5 -8 -12 -18 -15 -15 -6 -16 -7 -2 -13 20 -7 64 3 50 12 -6 3
10 7 36 8 l46 2 -65 -23 c-77 -27 -107 -42 -136 -69 -13 -11 -23 -17 -23 -12
0 7 62 88 80 105 3 3 6 12 8 20 6 26 24 42 35 31 7 -7 7 -14 -1 -23z m216 15
c-10 -2 -26 -2 -35 0 -10 3 -2 5 17 5 19 0 27 -2 18 -5z m4983 -76 c-10 -9
-11 -8 -5 6 3 10 9 15 12 12 3 -3 0 -11 -7 -18z m6 -30 c0 -15 -34 -20 -42 -6
-3 5 0 6 8 3 8 -3 18 -1 22 5 8 14 12 14 12 -2z m288 -13 c14 -6 12 -11 -11
-35 -28 -29 -64 -39 -64 -18 0 6 9 9 20 6 16 -4 19 -1 16 24 -3 30 6 35 39 23z
m-72 -84 c6 0 -2 -13 -18 -30 -16 -16 -35 -30 -42 -30 -7 0 -13 -6 -13 -14 0
-21 -29 -41 -41 -29 -8 8 -7 13 2 18 8 6 10 4 4 -5 -5 -8 -3 -11 6 -8 8 3 13
11 11 17 -1 6 10 24 24 38 18 18 23 28 14 31 -9 3 -9 6 1 13 8 5 20 7 27 4 8
-3 19 -5 25 -5z m680 -17 c-4 -11 -3 -14 5 -9 8 5 10 2 5 -10 -5 -15 -7 -15
-15 0 -5 9 -6 21 -3 26 10 16 15 12 8 -7z m-779 -34 c-3 -5 -10 -7 -15 -3 -5
3 -7 10 -3 15 3 5 10 7 15 3 5 -3 7 -10 3 -15z m481 -130 l140 -140 -138 -135
c-76 -74 -144 -134 -151 -134 -6 0 -72 61 -146 135 l-134 136 139 139 c77 77
142 140 145 140 3 0 68 -63 145 -141z m-5581 122 c3 -4 -15 -11 -40 -15 -59
-8 -156 -60 -205 -109 -56 -58 -81 -118 -87 -215 -6 -104 -27 -96 -26 11 0
178 140 316 341 336 6 0 14 -3 17 -8z m4782 -13 c-9 -5 -23 -5 -32 0 -12 6 -7
9 16 9 23 0 28 -3 16 -9z m300 -50 c4 -7 4 -10 -1 -6 -4 4 -25 -15 -46 -43
-22 -27 -42 -49 -45 -49 -4 0 -1 7 6 15 10 12 10 18 0 31 -8 8 -9 14 -4 13 24
-4 44 2 44 16 0 7 8 19 18 24 22 13 20 13 28 -1z m729 -18 c-10 -11 -22 -20
-28 -20 -5 0 1 9 14 20 31 25 37 25 14 0z m-1165 -5 c-14 -8 -29 -14 -35 -14
-5 0 1 6 15 14 14 8 30 14 35 14 6 0 -1 -6 -15 -14z m-4103 -1 c-3 -3 -12 -4
-19 -1 -8 3 -5 6 6 6 11 1 17 -2 13 -5z m30 -56 c-2 -13 -4 -5 -4 17 -1 22 1
32 4 23 2 -10 2 -28 0 -40z m-30 20 c-3 -8 -6 -5 -6 6 -1 11 2 17 5 13 3 -3 4
-12 1 -19z m-492 4 c6 -4 18 -20 28 -35 10 -15 44 -40 75 -55 l57 -27 3 -106
3 -106 -57 -23 c-45 -19 -59 -30 -70 -57 -18 -41 -51 -58 -97 -49 -28 5 -37
13 -49 44 -12 32 -23 41 -64 56 -75 28 -74 27 -74 137 0 110 2 113 83 139 26
8 41 20 48 38 6 15 15 32 21 39 11 14 76 18 93 5z m486 -47 c1 -17 2 -16 9 5
7 23 8 23 9 3 1 -12 -4 -25 -10 -28 -13 -9 -15 -7 -23 35 -4 25 -3 31 4 20 5
-8 10 -24 11 -35z m3676 19 c-3 -3 -12 -4 -19 -1 -8 3 -5 6 6 6 11 1 17 -2 13
-5z m213 -4 c0 -5 -8 -10 -17 -10 -15 0 -16 2 -3 10 19 12 20 12 20 0z m-127
-7 c-7 -2 -19 -2 -25 0 -7 3 -2 5 12 5 14 0 19 -2 13 -5z m-3385 -25 c-9 -7
-4 -8 15 -3 24 5 27 4 15 -8 -7 -8 -18 -13 -24 -10 -7 2 -15 0 -19 -6 -3 -6 2
-11 12 -11 21 0 43 -18 43 -34 0 -6 -5 -3 -11 7 -14 24 -73 23 -99 -3 -20 -20
-25 -15 -14 14 3 9 18 16 33 16 20 0 23 2 11 10 -12 8 -11 10 7 10 16 0 21 5
18 19 -3 14 1 18 12 14 12 -5 12 -8 1 -15z m65 15 c-7 -2 -19 -2 -25 0 -7 3
-2 5 12 5 14 0 19 -2 13 -5z m-400 -23 c-3 -12 -8 -19 -11 -16 -5 6 5 36 12
36 2 0 2 -9 -1 -20z m3882 -5 c-25 -12 -27 -14 -9 -15 28 0 34 -17 34 -101 l0
-69 84 0 c59 0 86 4 89 13 2 6 4 -18 4 -54 -1 -55 -4 -66 -16 -61 -8 3 -12 1
-9 -4 4 -5 -26 -8 -72 -6 l-79 3 -3 -78 -3 -78 -52 0 c-30 1 -49 -3 -46 -9 3
-5 1 -6 -5 -2 -6 4 -9 13 -5 21 3 8 0 15 -7 15 -8 0 -9 4 -3 13 5 6 7 36 5 65
l-4 52 -67 0 c-75 0 -103 13 -105 51 -4 53 25 67 146 71 l38 1 -6 38 c-4 21
-4 53 0 72 5 28 14 37 54 55 26 11 52 21 57 21 6 0 -3 -7 -20 -14z m-3378 -27
c-3 -8 -6 -5 -6 6 -1 11 2 17 5 13 3 -3 4 -12 1 -19z m3423 -13 c0 -5 -5 -3
-10 5 -5 8 -10 20 -10 25 0 6 5 3 10 -5 5 -8 10 -19 10 -25z m-150 -12 c-11
-17 -11 -17 -6 0 3 10 6 24 7 30 0 9 2 9 5 0 3 -7 0 -20 -6 -30z m580 11 c0
-8 -5 -12 -10 -9 -6 4 -8 11 -5 16 9 14 15 11 15 -7z m-3836 -20 c3 -8 2 -12
-4 -9 -6 3 -10 10 -10 16 0 14 7 11 14 -7z m3833 -26 c-3 -8 -6 -5 -6 6 -1 11
2 17 5 13 3 -3 4 -12 1 -19z m-3956 -27 c-17 -32 -63 -70 -77 -64 -8 3 -12 9
-9 14 3 4 11 6 18 3 19 -7 58 51 50 73 -6 16 -5 16 10 4 12 -9 14 -18 8 -30z
m109 -18 c-11 -17 -11 -17 -6 0 3 10 7 26 7 35 1 15 2 15 6 0 2 -10 -1 -25 -7
-35z m3879 15 c10 -30 9 -31 -4 -14 -8 11 -15 26 -15 33 0 22 8 14 19 -19z
m-3852 -10 c-3 -8 -6 -5 -6 6 -1 11 2 17 5 13 3 -3 4 -12 1 -19z m3823 8 c0
-3 -4 -8 -10 -11 -5 -3 -10 -1 -10 4 0 6 5 11 10 11 6 0 10 -2 10 -4z m-913
-38 c-3 -8 -6 -5 -6 6 -1 11 2 17 5 13 3 -3 4 -12 1 -19z m218 -6 c-3 -3 -11
0 -18 7 -9 10 -8 11 6 5 10 -3 15 -9 12 -12z m-3365 -2 c0 -5 -7 -7 -15 -4 -8
4 -15 8 -15 10 0 2 7 4 15 4 8 0 15 -4 15 -10z m4130 -132 c-38 -38 -71 -68
-74 -68 -3 0 -11 10 -17 23 -11 20 -11 21 5 8 21 -17 33 -7 16 14 -11 13 -10
14 4 9 9 -4 16 -1 16 6 0 7 8 10 19 7 17 -4 19 -1 15 30 -3 29 0 36 16 40 24
6 27 21 4 19 -10 0 -18 7 -19 20 -1 20 2 19 41 -10 l43 -31 -69 -67z m-1013
100 c-3 -8 -6 -5 -6 6 -1 11 2 17 5 13 3 -3 4 -12 1 -19z m20 -45 c-3 -10 -5
-4 -5 12 0 17 2 24 5 18 2 -7 2 -21 0 -30z m-30 -5 c-3 -7 -5 -2 -5 12 0 14 2
19 5 13 2 -7 2 -19 0 -25z m1834 -35 c-10 -16 -11 -15 -5 7 6 22 5 23 -10 11
-9 -8 -15 -20 -12 -27 3 -7 -4 -23 -14 -36 -11 -13 -19 -18 -20 -11 0 6 6 13
13 16 6 2 9 8 4 12 -10 11 -50 -32 -42 -46 4 -6 1 -9 -6 -7 -8 1 -29 -12 -46
-29 -32 -31 -44 -51 -23 -38 6 3 10 1 10 -4 0 -6 6 -11 14 -11 8 0 18 -4 21
-10 3 -5 -12 -3 -34 5 -22 8 -43 10 -46 5 -3 -4 -1 -10 4 -12 5 -1 3 -12 -5
-22 -7 -11 -17 -16 -21 -11 -5 4 -2 10 5 12 6 3 12 10 12 16 0 6 -7 4 -16 -5
-19 -19 -11 -53 10 -45 9 4 12 -2 8 -20 -4 -20 -2 -24 9 -19 8 4 3 -2 -10 -13
l-23 -21 -42 22 c-22 13 -43 24 -45 25 -3 2 1 9 7 15 9 9 16 7 31 -8 38 -37
48 -42 62 -33 10 6 10 9 2 9 -7 0 -13 9 -13 19 0 10 -7 22 -16 25 -12 4 -15 2
-10 -9 6 -18 -5 -20 -21 -4 -9 9 23 46 125 145 75 73 141 129 146 124 4 -4 3
-16 -3 -27z m-1841 13 c0 -3 -4 -8 -10 -11 -5 -3 -10 -1 -10 4 0 6 5 11 10 11
6 0 10 -2 10 -4z m1881 -81 c28 -64 37 -104 29 -136 -9 -37 -9 -36 -14 53 -2
20 -9 47 -18 60 -8 13 -18 39 -21 58 -5 31 -5 32 5 10 6 -14 14 -34 19 -45z
m-4673 37 c8 -7 12 -15 9 -18 -3 -4 -16 4 -29 16 -14 13 -17 20 -8 18 8 -2 21
-9 28 -16z m-18 -27 c7 -9 8 -15 2 -15 -5 0 -12 7 -16 15 -3 8 -4 15 -2 15 2
0 9 -7 16 -15z m3746 -22 c11 -16 4 -26 -58 -85 -48 -46 -79 -68 -95 -68 -13
0 -33 -4 -43 -10 -20 -11 -50 -4 -50 12 0 6 6 5 15 -2 8 -6 19 -9 26 -5 8 6 7
10 -2 17 -9 5 0 7 26 3 26 -3 33 -2 21 3 -19 8 -18 9 5 16 13 5 28 8 32 7 23
-4 44 20 42 48 -1 21 2 28 12 24 16 -6 17 -19 3 -26 -6 -3 -5 -4 2 -3 7 2 13
14 13 28 1 24 20 58 33 58 2 0 11 -8 18 -17z m-986 -18 c-7 -9 -15 -13 -17
-11 -6 6 20 36 26 30 2 -2 -2 -10 -9 -19z m1267 -10 c-7 -14 -18 -25 -24 -25
-7 0 -13 -7 -13 -15 0 -8 -5 -14 -11 -12 -6 1 -14 -4 -17 -12 -3 -9 0 -11 8
-6 9 5 11 4 6 -4 -4 -7 -13 -10 -19 -8 -12 4 -47 -28 -47 -44 0 -5 -4 -7 -10
-4 -19 12 -10 -29 13 -54 18 -21 18 -23 2 -11 -62 47 -64 39 27 133 46 47 86
86 90 87 3 0 1 -11 -5 -25z m-4174 -22 c-7 -3 -14 -14 -14 -26 -1 -18 -2 -19
-6 -4 -5 19 16 52 26 41 3 -4 0 -9 -6 -11z m104 11 c-3 -3 -12 -4 -19 -1 -8 3
-5 6 6 6 11 1 17 -2 13 -5z m4126 -30 c-5 -14 12 -20 20 -6 2 4 2 1 1 -5 -2
-7 1 -13 5 -13 5 0 7 -9 4 -20 -6 -23 -36 -35 -59 -22 -15 8 -15 10 0 15 10 4
15 3 11 -3 -3 -6 -2 -10 4 -10 12 0 8 70 -4 91 -7 12 -6 12 7 1 9 -8 14 -20
11 -28z m447 21 c-7 -9 -15 -13 -19 -10 -3 3 1 10 9 15 21 14 24 12 10 -5z
m-4605 -5 c3 -6 -1 -7 -9 -4 -18 7 -21 14 -7 14 6 0 13 -4 16 -10z m63 -2 c-2
-6 -10 -13 -16 -14 -7 -1 -8 0 -2 3 5 2 8 9 4 14 -3 5 0 9 6 9 7 0 10 -5 8
-12z m108 -44 c1 -8 -2 -14 -7 -14 -5 0 -9 10 -9 23 0 17 -2 19 -10 7 -5 -8
-12 -11 -17 -7 -4 5 -1 12 6 16 7 5 11 15 7 22 -4 8 1 3 11 -10 9 -13 18 -30
19 -37z m-227 -20 c-4 -31 -11 -59 -15 -62 -4 -4 -4 4 -1 18 4 14 7 42 7 63 0
20 4 37 8 37 5 0 5 -25 1 -56z m161 21 c0 -5 -5 -3 -10 5 -5 8 -10 20 -10 25
0 6 5 3 10 -5 5 -8 10 -19 10 -25z m-57 16 c23 -9 24 -13 22 -85 l-2 -76 67 0
c37 0 81 -3 96 -6 29 -5 29 -7 24 -57 l-5 -52 -92 -3 -93 -3 0 -69 c0 -60 -3
-71 -21 -80 -12 -7 -32 -9 -47 -4 -15 4 -30 7 -34 6 -5 -1 -8 32 -8 74 l0 75
-82 -2 c-91 -2 -108 8 -108 67 0 45 16 54 96 50 38 -2 75 -1 82 2 8 3 12 28
12 78 0 59 3 75 18 83 22 13 44 14 75 2z m2737 -24 c9 -3 4 -6 -12 -6 -21 -1
-26 3 -21 15 3 9 9 11 12 6 3 -5 13 -12 21 -15z m67 17 c-3 -3 -12 -4 -19 -1
-8 3 -5 6 6 6 11 1 17 -2 13 -5z m-2930 -36 c-3 -8 -6 -5 -6 6 -1 11 2 17 5
13 3 -3 4 -12 1 -19z m3168 12 c3 -6 -1 -7 -9 -4 -18 7 -21 14 -7 14 6 0 13
-4 16 -10z m574 6 c-12 -10 -60 -16 -54 -6 3 5 18 10 32 10 15 0 24 -2 22 -4z
m-624 -16 c-3 -5 -14 -10 -23 -10 -15 0 -15 2 -2 10 20 13 33 13 25 0z m1042
4 c-3 -3 -12 -4 -19 -1 -8 3 -5 6 6 6 11 1 17 -2 13 -5z m747 -54 c8 -30 17
-64 21 -75 6 -18 5 -18 -5 -3 -20 32 -52 153 -35 137 2 -3 11 -29 19 -59z
m-1659 30 c-3 -5 -12 -10 -18 -10 -7 0 -6 4 3 10 19 12 23 12 15 0z m936 -4
c23 4 22 4 -3 -9 -15 -7 -41 -26 -58 -42 -31 -30 -43 -29 -13 1 10 9 18 22 19
28 0 6 2 17 2 25 2 10 5 11 15 3 7 -6 24 -9 38 -6z m-3981 -31 c0 -19 -4 -35
-8 -35 -4 0 -6 16 -4 35 2 19 6 35 8 35 2 0 4 -16 4 -35z m3037 -22 c5 3 10
-4 10 -15 2 -20 1 -20 -19 -2 -11 11 -29 33 -40 49 -18 28 -18 28 10 -4 17
-18 34 -31 39 -28z m-3250 15 c-3 -7 -5 -2 -5 12 0 14 2 19 5 13 2 -7 2 -19 0
-25z m-447 12 c0 -5 -4 -10 -10 -10 -5 0 -10 5 -10 10 0 6 5 10 10 10 6 0 10
-4 10 -10z m4091 -19 c-8 -5 -20 -7 -28 -4 -21 8 -15 13 15 13 20 0 23 -3 13
-9z m1025 -18 c-10 -10 -19 5 -10 18 6 11 8 11 12 0 2 -7 1 -15 -2 -18z
m-4321 7 c4 -6 -6 -10 -22 -9 -25 0 -26 1 -8 9 11 5 21 9 22 9 1 1 5 -3 8 -9z
m3265 -5 c0 -1 -6 -7 -13 -13 -10 -8 -13 -6 -13 7 0 11 6 17 13 14 7 -3 13 -6
13 -8z m-3605 -9 c12 -12 12 -15 1 -19 -8 -3 -16 2 -19 14 -6 23 -1 24 18 5z
m3307 -8 c-7 -7 -12 -8 -12 -2 0 14 12 26 19 19 2 -3 -1 -11 -7 -17z m1314
-15 c-4 -4 -12 -1 -19 7 -9 10 -9 11 1 6 7 -4 12 -2 13 6 0 11 2 11 6 0 3 -7
2 -16 -1 -19z m251 -10 c-3 -10 -5 -4 -5 12 0 17 2 24 5 18 2 -7 2 -21 0 -30z
m-4547 17 c0 -5 -2 -10 -4 -10 -3 0 -8 5 -11 10 -3 6 -1 10 4 10 6 0 11 -4 11
-10z m30 0 c0 -5 -4 -10 -10 -10 -5 0 -10 5 -10 10 0 6 5 10 10 10 6 0 10 -4
10 -10z m4333 -11 c4 -16 3 -18 -9 -8 -16 13 -19 29 -5 29 5 0 11 -9 14 -21z
m-1405 -14 c-3 -3 -9 2 -12 12 -6 14 -5 15 5 6 7 -7 10 -15 7 -18z m240 -22
c-25 -27 -51 -58 -57 -71 -7 -12 -17 -20 -22 -16 -6 3 -9 0 -8 -7 1 -8 -3 -25
-9 -39 -11 -23 -12 -22 -6 10 4 19 3 32 -1 28 -10 -9 -35 10 -35 26 0 6 5 4
10 -4 9 -13 13 -12 29 7 10 12 21 20 24 17 3 -3 14 3 26 15 13 13 16 21 8 25
-17 6 12 26 29 19 7 -2 17 5 24 16 6 12 16 21 22 21 7 0 -8 -21 -34 -47z
m1378 20 c-10 -10 -19 5 -10 18 6 11 8 11 12 0 2 -7 1 -15 -2 -18z m-250 -2
c-3 -4 6 -19 19 -31 14 -13 25 -27 25 -32 0 -5 -13 7 -30 25 -32 37 -36 47
-19 47 5 0 8 -4 5 -9z m-1196 -26 c0 -14 -2 -25 -4 -25 -2 0 -6 11 -8 25 -3
14 -1 25 3 25 5 0 9 -11 9 -25z m-3098 -15 c-2 -16 -6 -30 -8 -30 -2 0 -4 14
-4 30 0 17 4 30 8 30 5 0 7 -13 4 -30z m36 -1 c-6 -16 -12 -28 -14 -26 -5 5
13 57 20 57 3 0 0 -14 -6 -31z m2657 0 c103 -48 153 -183 106 -284 -84 -178
-312 -181 -393 -5 -84 182 106 374 287 289z m285 -33 c0 -26 -6 -18 -14 19 -5
22 -4 26 4 15 5 -8 10 -24 10 -34z m-3920 9 c0 -8 -2 -15 -4 -15 -2 0 -6 7
-10 15 -3 8 -1 15 4 15 6 0 10 -7 10 -15z m5543 -30 l6 -40 -13 30 c-8 16 -11
35 -9 43 7 18 9 13 16 -33z m-1020 24 c24 -6 59 -30 91 -62 l52 -52 50 51 c54
55 92 70 150 60 47 -9 43 -21 -13 -36 -61 -16 -129 -55 -143 -80 -15 -29 -34
-25 -93 19 -179 135 -407 8 -407 -227 0 -88 3 -89 163 -94 91 -3 140 -1 146 6
5 6 24 62 42 124 18 61 37 112 41 112 4 0 26 -60 48 -132 23 -73 47 -151 54
-172 l12 -39 23 69 c45 134 63 175 74 171 6 -2 23 -32 37 -68 l26 -64 131 -5
c72 -3 135 -8 139 -12 9 -10 -23 -58 -39 -59 -6 0 -70 0 -141 1 -105 1 -132 4
-141 17 -9 12 -15 1 -33 -58 -56 -194 -67 -229 -73 -229 -7 0 -45 116 -86 262
-15 54 -29 95 -31 93 -3 -3 -8 -22 -11 -42 l-6 -38 -180 0 -179 0 -31 60 c-26
51 -30 71 -29 135 1 98 29 165 96 225 75 68 167 90 261 64z m-4598 -9 c-3 -5
-12 -10 -18 -10 -7 0 -6 4 3 10 19 12 23 12 15 0z m5383 -25 c-3 -3 -9 2 -12
12 -6 14 -5 15 5 6 7 -7 10 -15 7 -18z m49 -32 c-3 -2 -8 5 -12 16 -3 12 -11
19 -16 16 -5 -3 -6 2 -2 11 5 14 8 12 20 -11 8 -15 12 -29 10 -32z m-4932 8
c-6 -5 -25 10 -25 20 0 5 6 4 14 -3 8 -7 12 -15 11 -17z m652 5 c-6 -8 -15
-12 -19 -9 -4 2 -2 10 5 17 6 8 15 12 19 9 4 -2 2 -10 -5 -17z m-617 4 c0 -5
-2 -10 -4 -10 -3 0 -8 5 -11 10 -3 6 -1 10 4 10 6 0 11 -4 11 -10z m3501 -65
c5 4 10 -9 10 -27 l1 -33 7 30 c5 20 3 36 -6 46 -7 8 -12 26 -12 40 1 21 2 21
9 -6 6 -22 8 -25 10 -10 1 13 5 8 10 -13 4 -19 4 -48 -1 -65 -5 -18 -13 -63
-18 -102 l-8 -70 -3 65 c-1 49 -4 59 -10 40 -6 -18 -8 -8 -9 40 -1 36 -3 83
-6 105 l-5 40 11 -43 c6 -23 14 -40 20 -37z m-4663 16 c49 -58 62 -87 62 -142
l0 -40 -90 3 c-100 3 -92 10 -94 -72 l-1 -35 60 -2 c33 -2 75 -5 93 -8 30 -6
32 -8 32 -49 0 -42 -1 -44 -37 -50 -21 -3 -62 -6 -91 -6 -46 0 -54 -3 -61 -24
-11 -28 -29 -36 -81 -36 -62 0 -99 11 -105 31 -5 16 -17 19 -76 19 l-69 0 21
-42 c12 -24 38 -68 58 -98 20 -30 49 -79 65 -109 l29 -54 -29 7 c-55 13 -153
67 -203 112 -96 86 -143 237 -116 368 22 105 74 191 148 246 l41 30 200 0 201
0 43 -49z m602 45 c0 -3 -7 -12 -16 -20 -18 -18 -39 -22 -28 -5 4 7 0 10 -11
7 -10 -1 -20 -14 -22 -28 -6 -41 -11 -50 -33 -50 -18 0 -20 -4 -14 -22 7 -22
16 -55 29 -108 4 -17 1 -14 -9 9 -9 18 -16 38 -16 44 0 5 -17 37 -38 71 -37
59 -55 96 -48 96 2 0 14 -15 26 -32 18 -28 20 -29 14 -8 -6 22 -5 23 10 11 15
-12 16 -12 10 5 -4 10 -4 16 0 13 4 -4 26 -1 49 7 41 12 97 18 97 10z m860 -6
c0 -5 -5 -10 -11 -10 -5 0 -7 5 -4 10 3 6 8 10 11 10 2 0 4 -4 4 -10z m27 -12
c-3 -8 -6 -5 -6 6 -1 11 2 17 5 13 3 -3 4 -12 1 -19z m4556 -1 c13 -20 13 -24
1 -24 -8 0 -14 4 -14 8 0 4 -3 14 -6 23 -9 24 1 19 19 -7z m-4766 -9 c-3 -8
-6 -5 -6 6 -1 11 2 17 5 13 3 -3 4 -12 1 -19z m528 12 c-3 -5 -12 -10 -18 -10
-7 0 -6 4 3 10 19 12 23 12 15 0z m4463 -52 c6 -23 9 -44 7 -47 -3 -2 -8 10
-11 28 -4 17 -11 34 -15 37 -12 7 -12 24 0 24 5 0 13 -19 19 -42z m-208 -23
c0 -14 -2 -25 -4 -25 -2 0 -6 11 -8 25 -3 14 -1 25 3 25 5 0 9 -11 9 -25z
m189 -20 c0 -5 -4 -3 -9 5 -5 8 -9 22 -9 30 0 16 17 -16 18 -35z m-5726 -70
c4 -25 3 -34 -3 -25 -12 21 -24 99 -12 80 5 -8 12 -33 15 -55z m1887 21 c52
-13 120 -29 151 -35 l57 -12 -20 -62 c-37 -118 -10 -177 120 -259 46 -29 115
-74 155 -99 71 -45 227 -175 227 -188 0 -4 -21 -17 -47 -29 -131 -60 -352 -75
-498 -34 -200 56 -334 152 -400 286 -72 148 -47 305 69 418 38 37 56 48 71 43
11 -3 63 -16 115 -29z m3657 -13 c-3 -10 -5 -2 -5 17 0 19 2 27 5 18 2 -10 2
-26 0 -35z m170 15 c-3 -7 -5 -2 -5 12 0 14 2 19 5 13 2 -7 2 -19 0 -25z m52
-28 c1 -13 0 -13 -9 0 -5 8 -9 24 -9 35 l0 20 9 -20 c5 -11 9 -27 9 -35z
m-4922 4 c-3 -3 -12 -4 -19 -1 -8 3 -5 6 6 6 11 1 17 -2 13 -5z m-501 -26 c-8
-4 -25 -4 -38 1 -20 8 -18 9 15 8 24 -1 32 -4 23 -9z m111 6 c-3 -3 -12 -4
-19 -1 -8 3 -5 6 6 6 11 1 17 -2 13 -5z m43 -4 c0 -5 -5 -10 -11 -10 -5 0 -7
5 -4 10 3 6 8 10 11 10 2 0 4 -4 4 -10z m49 1 c11 -7 9 -10 -8 -16 -13 -4 -25
-4 -28 -1 -4 3 2 6 13 7 18 0 18 1 -1 9 -13 6 -15 9 -5 9 8 0 21 -3 29 -8z
m688 -13 c-3 -8 -6 -5 -6 6 -1 11 2 17 5 13 3 -3 4 -12 1 -19z m2887 -12 c-3
-14 -10 -26 -15 -26 -4 0 -3 14 3 31 12 36 22 33 12 -5z m-3984 14 c18 -12 2
-12 -25 0 -13 6 -15 9 -5 9 8 0 22 -4 30 -9z m50 0 c-10 -6 3 -8 40 -5 55 4
55 4 10 -5 -25 -4 -65 -15 -89 -24 -24 -9 -46 -16 -50 -16 -14 1 45 29 62 30
9 0 16 3 16 8 -3 15 1 22 14 22 8 0 7 -4 -3 -10z m2083 0 l37 0 0 -80 c0 -44
-3 -80 -7 -80 -5 0 -29 16 -54 34 -45 33 -59 61 -59 118 0 16 5 19 23 14 12
-3 39 -6 60 -6z m-1770 -19 c9 -10 9 -11 -3 -7 -8 4 -42 10 -75 16 l-60 9 63
-3 c34 -1 68 -8 75 -15z m764 -28 c-3 -10 -5 -2 -5 17 0 19 2 27 5 18 2 -10 2
-26 0 -35z m4510 15 c-3 -7 -5 -2 -5 12 0 14 2 19 5 13 2 -7 2 -19 0 -25z
m-5201 -15 c1 -15 -3 -20 -14 -15 -11 4 -12 7 -4 10 25 8 11 24 -15 18 -21 -5
-24 -4 -13 4 23 15 45 7 46 -17z m671 -5 c-3 -7 -5 -2 -5 12 0 14 2 19 5 13 2
-7 2 -19 0 -25z m-1175 -30 c-15 -10 -37 -25 -49 -34 -22 -16 -23 -16 -23 9 0
31 22 45 66 44 l33 -1 -27 -18z m584 1 c0 -17 -2 -17 -18 -2 -10 9 -21 14 -24
11 -3 -3 6 -15 20 -26 15 -11 26 -23 26 -26 0 -4 -16 6 -35 21 -35 28 -32 41
9 41 14 0 22 -7 22 -19z m3503 -12 c-1 -20 -2 -20 -6 -3 -5 18 -6 18 -19 -5
-7 -13 -13 -18 -14 -11 0 18 23 52 32 46 4 -3 7 -15 7 -27z m-2899 -8 c0 -11
-4 -17 -10 -14 -5 3 -10 15 -10 26 0 11 5 17 10 14 6 -3 10 -15 10 -26z m2833
20 c-6 -6 -9 -18 -6 -27 4 -10 2 -13 -5 -8 -6 4 -17 -5 -26 -22 -8 -16 -23
-32 -32 -36 -9 -4 -14 -12 -10 -22 4 -10 2 -13 -6 -8 -6 4 -17 -1 -25 -11 -7
-11 -13 -14 -13 -8 0 6 16 25 35 42 19 17 35 33 35 36 0 12 46 75 55 75 5 0 4
-5 -2 -11z m1694 -21 c-3 -7 -5 -2 -5 12 0 14 2 19 5 13 2 -7 2 -19 0 -25z
m-1625 -27 c8 12 9 12 6 0 -6 -22 -28 -25 -27 -4 0 12 2 14 6 4 5 -11 7 -11
15 0z m-2917 -10 c3 -5 1 -12 -5 -16 -5 -3 -10 1 -10 9 0 18 6 21 15 7z m2180
-30 c-4 -3 -10 1 -16 9 -8 13 -10 13 -19 0 -11 -17 -13 -10 -4 15 6 14 8 14
25 -1 11 -10 17 -20 14 -23z m2372 -8 c-3 -10 -5 -2 -5 17 0 19 2 27 5 18 2
-10 2 -26 0 -35z m-5107 26 c0 -5 5 -7 12 -3 7 4 8 3 4 -5 -6 -9 -11 -9 -22 0
-17 14 -18 19 -4 19 6 0 10 -5 10 -11z m50 3 c0 -5 -7 -17 -15 -28 -14 -18
-14 -17 -4 9 12 27 19 34 19 19z m3443 -32 c3 -11 1 -20 -4 -20 -5 0 -9 9 -9
20 0 11 2 20 4 20 2 0 6 -9 9 -20z m1357 5 c0 -8 -2 -15 -4 -15 -2 0 -6 7 -10
15 -3 8 -1 15 4 15 6 0 10 -7 10 -15z m-4313 -27 c-3 -8 -6 -5 -6 6 -1 11 2
17 5 13 3 -3 4 -12 1 -19z m2188 11 c11 -16 1 -19 -13 -3 -7 8 -8 14 -3 14 5
0 13 -5 16 -11z m2096 -12 c-10 -9 -11 -8 -5 6 3 10 9 15 12 12 3 -3 0 -11 -7
-18z m-4775 4 c-7 -11 19 -33 28 -24 4 4 4 0 1 -10 -6 -15 -9 -14 -25 6 -16
19 -18 37 -4 37 3 0 3 -4 0 -9z m2719 -10 c-3 -6 -11 -11 -16 -11 -5 0 -4 6 3
14 14 16 24 13 13 -3z m-2202 -21 c-3 -12 -8 -19 -11 -16 -5 6 5 36 12 36 2 0
2 -9 -1 -20z m3003 -91 c20 -23 17 -31 -6 -19 -11 6 -20 18 -20 28 0 9 -9 31
-20 47 -11 17 -20 24 -20 16 0 -8 -2 -12 -5 -10 -2 3 -2 15 2 27 5 20 8 17 30
-25 14 -27 32 -55 39 -64z m-889 79 c-3 -8 -6 -5 -6 6 -1 11 2 17 5 13 3 -3 4
-12 1 -19z m2133 9 c0 -7 -7 -22 -15 -33 -13 -17 -13 -16 -3 14 13 34 18 40
18 19z m-1931 -27 c8 0 12 -3 8 -6 -8 -8 -77 15 -77 26 0 5 12 2 28 -6 15 -7
33 -14 41 -14z m381 12 c0 -4 -9 -8 -20 -9 -11 -1 -18 2 -15 8 7 11 35 12 35
1z m-3521 -22 c59 -30 108 -93 121 -156 6 -30 9 -63 5 -74 -6 -19 -2 -20 67
-20 145 -1 196 -23 236 -101 26 -50 25 -111 -3 -138 -16 -15 -17 -14 -6 6 6
12 8 30 5 40 -27 83 -57 99 -210 108 l-121 7 -34 -31 c-48 -45 -90 -61 -153
-61 -65 0 -112 17 -165 59 -37 29 -38 29 -162 28 -143 -2 -170 -13 -196 -75
-15 -36 -12 -68 12 -124 12 -29 -23 -22 -55 10 -38 39 -47 90 -25 147 34 92
122 130 279 123 l81 -3 1 55 c1 90 55 170 139 206 46 20 139 17 184 -6z m3454
-2 c-13 -6 -23 -14 -23 -18 0 -4 -12 -5 -27 -2 -27 5 -26 6 12 18 50 15 67 16
38 2z m-3102 -21 c-10 -9 -11 -8 -5 6 3 10 9 15 12 12 3 -3 0 -11 -7 -18z
m207 3 l157 -7 -172 -1 c-95 -1 -173 2 -173 6 0 14 12 22 22 16 5 -4 80 -9
166 -14z m263 1 c7 11 9 10 9 -5 0 -12 -5 -16 -14 -13 -8 3 -16 0 -18 -7 -2
-9 -9 -9 -28 2 -25 14 -25 14 -1 8 18 -4 25 0 29 17 6 20 7 20 10 3 3 -15 6
-16 13 -5z m2432 -8 c-7 -2 -19 -2 -25 0 -7 3 -2 5 12 5 14 0 19 -2 13 -5z
m44 1 c-3 -3 -12 -4 -19 -1 -8 3 -5 6 6 6 11 1 17 -2 13 -5z m53 -9 c-14 -8
-38 -14 -55 -14 l-30 -1 25 14 c14 8 39 14 55 15 l30 0 -25 -14z m2040 -17 c0
-12 -3 -18 -7 -14 -11 10 -12 36 -2 36 5 0 9 -10 9 -22z m-367 -8 c-3 -11 -12
-20 -19 -20 -17 0 -18 12 -2 28 18 18 27 15 21 -8z m-1984 1 c11 -7 9 -10 -8
-16 -13 -4 -25 -4 -28 -1 -4 3 2 6 13 6 16 0 17 2 4 10 -8 5 -10 10 -5 10 6 0
16 -4 24 -9z m374 2 c-13 -2 -33 -2 -45 0 -13 2 -3 4 22 4 25 0 35 -2 23 -4z
m-33 -13 c78 -5 59 -7 -110 -7 -116 -1 -194 2 -180 7 31 10 164 10 290 0z
m2034 -246 c14 -5 16 -44 16 -329 0 -281 -2 -326 -16 -339 -14 -14 -139 -16
-1229 -16 -1097 0 -1213 2 -1219 16 -3 9 -6 151 -6 316 l0 300 29 29 29 29
1190 0 c655 0 1197 -3 1206 -6z m-7082 -63 c-5 -53 9 -224 15 -181 13 94 34
95 31 3 l-1 -68 -7 60 -8 60 2 -77 c0 -44 -3 -74 -8 -70 -5 3 -6 -2 -3 -12 4
-10 8 -52 8 -94 l1 -77 9 59 c12 85 18 80 17 -13 -1 -50 -6 -85 -13 -91 -10
-8 -15 11 -24 82 -28 225 -38 468 -21 468 4 0 5 -22 2 -49z m35 -33 c-2 -13
-4 -3 -4 22 0 25 2 35 4 23 2 -13 2 -33 0 -45z m-20 -30 c-2 -13 -4 -5 -4 17
-1 22 1 32 4 23 2 -10 2 -28 0 -40z m386 -14 c8 -8 -3 -34 -14 -34 -4 0 -6 6
-4 13 6 14 -62 16 -85 2 -8 -5 -11 -4 -6 3 3 5 0 13 -6 15 -7 3 14 6 48 6 33
1 63 -2 67 -5z m451 -59 c31 -99 113 -180 208 -206 24 -6 214 -9 510 -7 l473
3 54 30 c68 38 118 99 141 172 l18 58 91 3 c87 3 91 2 96 -20 3 -13 4 -453 3
-978 l-3 -955 -885 0 -885 0 -3 965 c-1 531 0 970 2 975 2 6 39 11 83 12 l80
1 17 -53z m1849 38 c-5 -12 -2 -15 8 -11 8 3 23 0 34 -8 15 -11 17 -19 9 -41
-11 -31 -34 -42 -35 -16 0 16 -1 16 -9 -2 -12 -27 -12 -43 0 -25 8 12 10 12
10 -5 0 -11 3 -31 6 -45 4 -17 3 -21 -4 -12 -7 11 -10 9 -15 -7 -3 -13 -1 -19
5 -14 7 4 8 1 2 -8 -5 -8 -11 -428 -14 -974 l-5 -960 -3 1073 c-1 686 1 1072
8 1072 5 0 6 -8 3 -17z m-2295 -270 l-3 -248 -2 243 c-3 178 -6 241 -15 236
-7 -4 -8 -3 -4 4 22 36 26 -5 24 -235z m2885 160 c41 -5 48 -9 53 -32 18 -87
59 -224 81 -269 17 -34 74 -104 157 -193 253 -270 325 -373 351 -497 22 -102
0 -204 -60 -277 -11 -14 -10 -7 5 22 40 83 21 178 -51 258 -58 62 -125 99
-283 155 -172 61 -247 112 -349 240 -112 139 -155 284 -123 409 17 68 38 104
95 164 27 28 41 36 56 32 11 -4 41 -9 68 -12z m-3237 -327 c-7 -29 10 -82 30
-90 18 -7 18 -42 0 -53 -9 -5 -11 -15 -5 -28 l8 -20 0 20 c1 17 3 17 11 5 5
-8 10 -24 10 -35 0 -17 -2 -17 -10 -5 -11 17 -13 10 -4 -14 8 -21 24 -10 25
17 2 38 17 -33 17 -83 0 -42 0 -43 -9 -15 -5 17 -7 39 -4 50 3 11 2 14 -1 7
-3 -6 -11 -9 -17 -5 -7 4 -8 0 -3 -13 5 -10 14 -50 22 -88 7 -37 19 -75 25
-82 11 -13 5 -34 -6 -22 -8 8 -73 265 -90 356 -9 46 -13 92 -10 103 9 27 18
24 11 -5z m81 -82 c-3 -3 -12 -4 -19 -1 -8 3 -5 6 6 6 11 1 17 -2 13 -5z m3
-75 c0 -5 -4 -8 -9 -5 -5 4 -12 0 -14 -6 -3 -8 -6 -6 -6 5 -1 9 6 17 14 17 8
0 15 -5 15 -11z m269 -438 c0 -329 -3 -441 -12 -444 -7 -3 -13 6 -14 22 -5 60
-8 80 -15 87 -17 16 -18 -26 -2 -51 9 -14 14 -28 11 -31 -3 -4 -19 22 -36 57
-19 41 -27 67 -21 73 7 7 10 3 10 -10 0 -17 2 -16 20 6 14 18 18 34 14 58 -4
19 -2 32 4 32 6 0 12 -19 14 -42 3 -45 17 393 15 472 -2 76 3 210 8 210 2 0 4
-198 4 -439z m2429 241 l22 -37 -35 40 c-19 22 -35 35 -35 30 0 -12 29 -56 44
-68 7 -5 5 -7 -4 -4 -19 5 -54 63 -45 76 9 16 28 3 53 -37z m3660 -607 c1
-346 0 -645 -3 -663 -3 -17 -16 -41 -27 -52 -21 -20 -36 -20 -896 -20 -580 0
-880 3 -893 10 -49 27 -49 24 -49 699 0 346 3 637 6 645 6 15 94 16 933 14
l926 -3 3 -630z m471 619 c6 -6 -33 -134 -41 -134 -4 0 -5 -8 -2 -17 5 -15 4
-16 -5 -3 -15 21 -14 47 3 57 7 4 17 22 20 40 6 28 4 32 -16 36 -17 3 -16 4 5
2 15 -1 27 2 27 5 0 12 -169 22 -187 11 -14 -8 -15 -10 -3 -11 13 0 13 -2 0
-9 -17 -12 -23 -226 -11 -416 6 -91 4 -125 -5 -139 -11 -16 -13 32 -12 270 0
159 5 297 10 308 9 16 18 17 111 11 56 -4 104 -9 106 -11z m-152 -10 c-3 -3
-12 -4 -19 -1 -8 3 -5 6 6 6 11 1 17 -2 13 -5z m-4023 -30 c3 -8 2 -12 -4 -9
-6 3 -10 10 -10 16 0 14 7 11 14 -7z m-2594 -44 c0 -5 -2 -10 -4 -10 -3 0 -8
5 -11 10 -3 6 -1 10 4 10 6 0 11 -4 11 -10z m4060 -10 c0 -5 -4 -10 -9 -10 -6
0 -13 5 -16 10 -3 6 1 10 9 10 9 0 16 -4 16 -10z m-4070 -52 c0 -13 5 -30 11
-38 8 -11 9 -5 4 23 -3 20 -2 37 3 37 5 0 8 -34 6 -77 -2 -61 1 -87 16 -120
11 -24 20 -51 19 -60 -1 -23 -22 26 -65 146 -18 52 -30 99 -28 103 11 17 34 7
34 -14z m2660 -44 c0 -13 -4 -24 -10 -24 -5 0 -10 -17 -11 -37 0 -21 -4 -47
-9 -58 l-9 -20 0 20 c-1 17 -3 18 -12 5 -9 -12 -10 -12 -5 3 3 10 6 24 7 30 0
7 4 3 9 -8 6 -14 9 -2 9 43 1 36 5 62 12 62 5 0 7 5 3 12 -4 7 -3 8 4 4 7 -4
12 -18 12 -32z m4039 -75 c-16 -46 -35 -87 -41 -90 -6 -4 -8 -11 -5 -16 3 -4
-1 -19 -9 -33 -7 -14 -13 -21 -14 -17 0 5 5 17 10 28 7 13 7 19 0 19 -5 0 -10
-5 -10 -11 0 -5 -5 -7 -10 -4 -7 4 -2 14 11 26 17 15 20 22 11 31 -22 22 -14
41 14 35 23 -4 25 -2 20 27 -4 21 -3 25 2 12 8 -19 9 -18 15 4 3 13 1 31 -6
39 -11 14 -10 14 6 2 15 -12 17 -11 19 5 0 11 1 28 0 39 -2 18 -1 18 8 3 7
-12 2 -39 -21 -99z m-2612 79 c-3 -8 -6 -5 -6 6 -1 11 2 17 5 13 3 -3 4 -12 1
-19z m-1480 -50 c-3 -8 -6 -5 -6 6 -1 11 2 17 5 13 3 -3 4 -12 1 -19z m472
-73 c48 -71 75 -104 146 -180 36 -38 159 -139 269 -219 104 -77 152 -128 186
-201 26 -56 53 -155 45 -163 -2 -2 -9 15 -15 39 -16 58 -52 126 -89 169 l-30
35 36 -68 c43 -84 63 -154 63 -227 l-1 -55 -17 51 c-20 56 -77 140 -123 179
-17 14 -64 41 -105 61 -181 87 -283 165 -374 286 -90 119 -111 219 -69 319 12
27 23 49 24 49 2 0 26 -34 54 -75z m-3009 -18 c0 -5 -4 -5 -10 -2 -5 3 -10 14
-10 23 0 15 2 15 10 2 5 -8 10 -19 10 -23z m20 23 c0 -5 -2 -10 -4 -10 -3 0
-8 5 -11 10 -3 6 -1 10 4 10 6 0 11 -4 11 -10z m6530 -40 c0 -5 -4 -10 -10
-10 -5 0 -10 5 -10 10 0 6 5 10 10 10 6 0 10 -4 10 -10z m-6525 -85 c2 -16 6
-43 9 -60 6 -29 6 -29 -5 -5 -6 14 -13 39 -14 55 -1 17 -5 46 -9 65 -6 35 -6
35 5 5 5 -16 12 -43 14 -60z m2522 63 c-3 -8 -6 -5 -6 6 -1 11 2 17 5 13 3 -3
4 -12 1 -19z m-2510 -20 c-3 -8 -6 -5 -6 6 -1 11 2 17 5 13 3 -3 4 -12 1 -19z
m6523 -65 c0 -2 -3 -2 -7 0 -5 3 -9 -6 -10 -20 -2 -46 -19 -45 -19 2 -1 27 3
42 9 38 7 -4 8 1 3 13 -19 44 -16 56 3 15 12 -24 21 -45 21 -48z m-6500 -13
c0 -5 -2 -10 -4 -10 -3 0 -8 5 -11 10 -3 6 -1 10 4 10 6 0 11 -4 11 -10z
m2513 -95 c4 -8 2 -17 -3 -20 -6 -4 -10 3 -10 14 0 25 6 27 13 6z m14 -47 c-3
-8 -6 -5 -6 6 -1 11 2 17 5 13 3 -3 4 -12 1 -19z m1440 3 c0 -11 -5 -18 -9
-15 -4 3 -5 11 -1 19 7 21 12 19 10 -4z m2 -80 c0 -14 -1 -14 -6 -1 -3 8 -10
24 -15 35 -9 20 -9 20 6 1 9 -11 16 -27 15 -35z m-1410 -71 c11 -24 11 -24 -3
-6 -9 11 -16 24 -16 30 0 12 5 7 19 -24z m1331 -55 c-7 -9 -15 -13 -19 -10 -3
3 1 10 9 15 21 14 24 12 10 -5z m-1301 -87 c-6 -23 -5 -34 3 -39 7 -5 9 -11 5
-16 -5 -4 -12 -1 -18 7 -7 13 -10 13 -18 1 -6 -9 -11 -10 -15 -2 -4 6 -3 11 3
11 5 0 15 16 22 35 16 44 31 46 18 3z m501 -204 c0 -193 -3 -200 -50 -107 -33
65 -33 150 -1 213 24 45 40 70 47 70 2 0 4 -79 4 -176z m-511 27 c-13 -60 -28
-85 -29 -48 0 15 5 27 10 27 6 0 10 7 10 16 0 12 -3 14 -12 6 -10 -8 -13 -2
-13 24 0 21 5 34 13 34 6 0 12 12 13 28 1 25 2 24 9 -8 5 -20 5 -54 -1 -79z
m-1084 -195 c13 -9 26 -30 30 -47 6 -26 3 -36 -17 -56 l-25 -25 -234 1 -234 0
-22 26 c-13 14 -23 34 -23 44 0 26 36 69 63 75 12 2 116 3 231 1 163 -4 214
-8 231 -19z m2582 -18 c-3 -7 -5 -2 -5 12 0 14 2 19 5 13 2 -7 2 -19 0 -25z
m-1524 -18 c3 -11 1 -18 -4 -14 -5 3 -9 12 -9 20 0 20 7 17 13 -6z m1404 -47
c-3 -10 -5 -4 -5 12 0 17 2 24 5 18 2 -7 2 -21 0 -30z m120 -15 c-3 -8 -6 -5
-6 6 -1 11 2 17 5 13 3 -3 4 -12 1 -19z m-1530 -20 c-3 -8 -6 -5 -6 6 -1 11 2
17 5 13 3 -3 4 -12 1 -19z m-170 -20 c-3 -8 -6 -5 -6 6 -1 11 2 17 5 13 3 -3
4 -12 1 -19z m1753 -49 c0 -6 -4 -7 -10 -4 -5 3 -10 11 -10 16 0 6 5 7 10 4 6
-3 10 -11 10 -16z m-183 -31 c-3 -8 -6 -5 -6 6 -1 11 2 17 5 13 3 -3 4 -12 1
-19z m253 -52 c0 -3 -5 -6 -12 -6 -6 0 -9 3 -5 6 8 8 -20 37 -30 31 -5 -3 -9
5 -9 18 -2 22 0 21 27 -10 16 -18 29 -35 29 -39z m-1830 29 c0 -5 -5 -3 -10 5
-5 8 -10 20 -10 25 0 6 5 3 10 -5 5 -8 10 -19 10 -25z m-15 -43 c-3 -3 -5 0
-5 6 0 7 -4 12 -10 12 -5 0 -10 -7 -10 -15 0 -8 -7 -15 -15 -15 -9 0 -18 -7
-22 -15 -8 -22 -70 -51 -123 -59 -41 -6 -38 -4 25 18 54 19 79 35 110 69 37
41 41 43 48 24 4 -11 5 -22 2 -25z m1880 -10 c-3 -3 -11 0 -18 7 -9 10 -8 11
6 5 10 -3 15 -9 12 -12z m-268 -34 c-3 -8 -6 -5 -6 6 -1 11 2 17 5 13 3 -3 4
-12 1 -19z m334 -6 c-7 -2 -18 1 -23 6 -8 8 -4 9 13 5 13 -4 18 -8 10 -11z
m-2043 -34 c8 -10 3 -13 -19 -13 -26 0 -27 1 -12 13 9 6 18 12 19 12 1 0 6 -6
12 -12z m2132 2 c-8 -5 -19 -10 -25 -10 -5 0 -3 5 5 10 8 5 20 10 25 10 6 0 3
-5 -5 -10z m73 3 c-7 -2 -19 -2 -25 0 -7 3 -2 5 12 5 14 0 19 -2 13 -5z
m-2406 -9 c-3 -4 -232 -6 -509 -6 -277 1 -529 -2 -561 -7 -32 -4 -54 -4 -50 0
4 4 26 9 48 12 68 6 1079 7 1072 1z m3346 -1 c-13 -2 -33 -2 -45 0 -13 2 -3 4
22 4 25 0 35 -2 23 -4z m162 -18 c-16 -13 -35 -22 -42 -20 -7 2 -10 -1 -8 -8
2 -7 -19 -30 -48 -53 -111 -87 -175 -134 -184 -134 -4 0 0 5 10 11 9 5 17 14
17 20 0 5 -9 4 -20 -3 -11 -7 -20 -20 -20 -30 0 -9 -21 -29 -46 -45 -25 -15
-57 -38 -72 -49 -15 -12 -70 -47 -122 -78 -52 -31 -102 -61 -110 -66 -35 -22
-161 -82 -164 -79 -2 2 -6 18 -10 34 l-6 30 19 -22 c18 -22 21 -22 53 -8 18 8
27 14 20 15 -7 0 -22 -4 -32 -10 -13 -7 -19 -6 -23 3 -4 10 8 13 42 14 39 0
46 3 44 19 -1 10 0 13 3 7 3 -7 13 -13 21 -13 13 0 13 2 2 16 -12 15 -11 16 7
10 12 -3 28 0 40 9 14 11 15 14 4 15 -13 0 -13 1 0 10 8 5 20 10 25 10 6 0 3
-5 -5 -10 -11 -7 -11 -10 -2 -10 20 0 72 29 72 40 0 6 8 10 18 11 15 0 14 2
-3 10 -17 8 -15 8 8 4 15 -3 27 -1 27 4 0 5 -12 14 -27 20 -16 6 -19 9 -8 7
11 -2 29 -7 39 -12 12 -5 17 -4 13 3 -4 6 18 20 49 33 30 13 60 30 67 39 10
12 9 14 -6 8 -11 -4 -16 -3 -12 4 4 6 13 8 21 5 22 -8 44 4 44 25 0 23 56 60
78 51 11 -4 13 -2 7 8 -5 8 -4 11 2 7 6 -4 26 7 44 23 19 16 29 30 24 30 -6 0
-16 -5 -22 -11 -9 -9 -16 -8 -27 3 -13 14 -10 15 29 13 37 -3 48 1 64 21 10
13 24 24 30 24 6 0 11 9 11 20 0 11 -5 20 -11 20 -5 0 -8 4 -4 9 3 5 -5 12
-17 14 -13 2 11 5 52 6 l75 1 -30 -25z m-4704 -2 c13 -16 12 -17 -3 -4 -17 13
-22 21 -14 21 2 0 10 -8 17 -17z m1646 -15 c-3 -8 -6 -5 -6 6 -1 11 2 17 5 13
3 -3 4 -12 1 -19z m2953 12 c-8 -5 -22 -10 -30 -10 -13 0 -13 1 0 10 8 5 22
10 30 10 13 0 13 -1 0 -10z m-4529 -34 c8 4 10 3 5 -5 -4 -6 -2 -18 4 -26 25
-30 3 -14 -31 22 -18 21 -24 29 -12 19 12 -10 27 -15 34 -10z m4559 14 c0 -5
-7 -10 -16 -10 -8 0 -12 5 -9 10 3 6 10 10 16 10 5 0 9 -4 9 -10z m-3008 -122
c-6 -6 -8 -36 -5 -68 l6 -59 -248 -1 c-136 0 -252 -3 -256 -6 -5 -3 -9 0 -9 5
0 7 84 12 248 13 l247 3 2 55 c1 30 6 82 10 115 l8 60 3 -54 c2 -30 -1 -58 -6
-63z m-1479 52 c4 0 5 5 2 10 -3 6 -1 10 5 10 7 0 9 -7 6 -16 -4 -9 -1 -24 6
-33 7 -9 0 -5 -15 8 -15 14 -27 21 -27 17 0 -4 -5 -4 -10 -1 -6 4 -7 11 -4 17
4 6 10 6 17 -1 6 -6 15 -11 20 -11z m797 -32 c6 -49 0 -58 -40 -58 -11 0 -24
-8 -30 -17 -10 -16 -11 -16 -6 -1 4 13 -2 18 -27 20 -28 3 -31 7 -35 41 -6 63
0 68 70 65 l63 -3 5 -47z m3068 -16 l3 -53 -108 3 -108 3 -5 55 -5 55 110 -5
110 -5 3 -53z m-3798 22 c0 -2 -9 0 -20 6 -11 6 -20 13 -20 16 0 2 9 0 20 -6
11 -6 20 -13 20 -16z m4295 -13 c-6 -5 -25 10 -25 20 0 5 6 4 14 -3 8 -7 12
-15 11 -17z m-2865 -51 c-6 -42 -8 -47 -9 -20 -1 34 8 84 14 78 2 -2 0 -28 -5
-58z m2417 38 c-3 -8 -6 -5 -6 6 -1 11 2 17 5 13 3 -3 4 -12 1 -19z m-3817
-23 c6 3 9 1 8 -5 -2 -7 14 -21 35 -32 20 -11 37 -24 37 -29 0 -5 5 -9 11 -9
6 0 24 -11 41 -25 16 -14 27 -25 24 -25 -12 0 -86 53 -86 61 0 5 -6 9 -14 9
-17 0 -116 72 -116 84 0 5 11 -1 24 -13 14 -13 29 -20 36 -16z m3797 -7 c-3
-7 -5 -2 -5 12 0 14 2 19 5 13 2 -7 2 -19 0 -25z m-3732 -16 c-3 -3 -11 0 -18
7 -9 10 -8 11 6 5 10 -3 15 -9 12 -12z m655 4 c0 -3 -4 -8 -10 -11 -5 -3 -10
-1 -10 4 0 6 5 11 10 11 6 0 10 -2 10 -4z m-120 -16 c0 -5 -5 -10 -11 -10 -5
0 -7 5 -4 10 3 6 8 10 11 10 2 0 4 -4 4 -10z m77 -22 c-3 -8 -6 -5 -6 6 -1 11
2 17 5 13 3 -3 4 -12 1 -19z m-521 -27 c0 -16 -3 -17 -14 -9 -12 10 -7 19 13
28 1 0 1 -9 1 -19z m659 1 c-3 -3 -11 0 -18 7 -9 10 -8 11 6 5 10 -3 15 -9 12
-12z m98 1 c-7 -2 -19 -2 -25 0 -7 3 -2 5 12 5 14 0 19 -2 13 -5z m2584 1 c-3
-3 -12 -4 -19 -1 -8 3 -5 6 6 6 11 1 17 -2 13 -5z m-137 -14 c0 -5 -7 -10 -15
-10 -8 0 -15 5 -15 10 0 6 7 10 15 10 8 0 15 -4 15 -10z m97 4 c-3 -3 -12 -4
-19 -1 -8 3 -5 6 6 6 11 1 17 -2 13 -5z m-2617 -20 c0 -2 -12 -4 -26 -4 -14 0
-23 4 -20 9 6 8 46 4 46 -5z m2383 9 c-35 -2 -91 -2 -125 0 -35 2 -7 3 62 3
69 0 97 -1 63 -3z m180 0 c-7 -2 -19 -2 -25 0 -7 3 -2 5 12 5 14 0 19 -2 13
-5z m60 -10 c-7 -2 -21 -2 -30 0 -10 3 -4 5 12 5 17 0 24 -2 18 -5z m63 -34
c3 -6 -5 -3 -20 6 -14 10 -26 19 -26 22 0 7 39 -17 46 -28z m-2780 -14 c-16
-13 -35 -21 -43 -18 -21 8 -10 28 18 31 13 2 28 8 33 13 5 5 12 6 15 3 3 -3
-7 -16 -23 -29z m-476 3 c0 -5 -10 -8 -22 -8 -18 0 -15 -4 15 -20 21 -11 41
-19 45 -16 4 2 8 -4 8 -14 0 -10 -6 -16 -13 -13 -7 3 -13 8 -13 12 0 4 -16 15
-36 24 -22 11 -32 22 -28 29 5 7 2 9 -8 6 -8 -4 -21 -3 -28 2 -7 4 8 7 34 6
25 0 46 -4 46 -8z m44 4 c2 -4 1 -14 -4 -22 -7 -12 -12 -12 -22 -2 -9 9 -9 12
1 12 7 0 9 5 6 10 -3 6 -2 10 4 10 5 0 12 -4 15 -8z m3286 -1 c2 -1 -1 -6 -8
-13 -9 -9 -9 -15 1 -27 11 -14 10 -14 -5 -2 -10 7 -15 18 -11 24 4 6 0 8 -11
4 -9 -4 -15 -3 -11 2 3 5 -1 11 -7 14 -10 4 20 2 52 -2z m-2924 -84 c-17 -35
-22 -40 -28 -26 -12 30 3 81 19 65 4 -4 1 -11 -6 -15 -8 -5 -9 -11 -3 -15 13
-8 23 19 15 42 -6 14 -4 15 9 5 13 -12 13 -18 -6 -56z m-277 0 c8 -10 7 -14
-4 -14 -8 0 -11 5 -8 10 3 5 0 7 -8 5 -8 -3 -13 -11 -11 -17 1 -7 -2 -10 -8
-6 -8 5 -7 11 1 21 14 17 23 18 38 1z m1316 -18 c41 -11 75 -35 75 -51 0 -5
-17 -16 -37 -25 -33 -15 -91 -17 -438 -17 -366 -1 -403 1 -433 17 -18 10 -32
24 -30 30 8 24 80 49 166 57 119 12 646 4 697 -11z m1500 12 c174 -11 246 -45
183 -85 -27 -16 -557 -28 -776 -17 -116 6 -136 9 -148 26 -8 10 -14 22 -14 25
0 18 89 44 173 50 132 10 430 10 582 1z m450 -1 c3 -5 1 -10 -4 -10 -6 0 -11
5 -11 10 0 6 2 10 4 10 3 0 8 -4 11 -10z m145 0 c8 -5 11 -10 5 -10 -5 0 -17
5 -25 10 -8 5 -10 10 -5 10 6 0 17 -5 25 -10z m-163 -42 c-3 -8 -6 -5 -6 6 -1
11 2 17 5 13 3 -3 4 -12 1 -19z m-3207 2 c0 -5 6 -10 13 -10 23 0 78 -31 72
-41 -4 -5 -16 0 -27 11 -12 11 -29 20 -37 20 -9 0 -25 7 -35 15 -17 13 -18 15
-3 15 9 0 17 -4 17 -10z m204 -69 l-7 -51 -26 19 c-14 10 -33 21 -41 24 -11 4
-9 6 6 6 11 1 25 -4 32 -11 9 -9 12 -8 13 8 1 10 1 23 0 27 -1 8 22 37 27 32
2 -1 0 -26 -4 -54z m-89 9 c-3 -5 -12 -10 -18 -10 -7 0 -6 4 3 10 19 12 23 12
15 0z m1564 -128 c761 -1 1277 1 1297 7 l34 9 0 -39 c0 -31 -5 -42 -27 -56
-16 -10 -43 -33 -61 -50 -39 -39 -98 -67 -172 -82 -164 -32 -269 -36 -1200
-36 l-935 0 -55 26 c-78 37 -114 71 -149 141 -36 71 -41 105 -13 92 9 -5 586
-10 1281 -12z"/>
<path d="M5030 8791 c-246 -34 -432 -205 -486 -448 -67 -304 130 -614 431
-678 201 -42 385 9 530 146 185 176 228 428 113 667 -42 89 -158 206 -253 254
-104 53 -224 74 -335 59z m128 -117 c16 -11 22 -25 22 -53 l0 -38 50 -6 c61
-7 120 -39 150 -79 47 -64 33 -201 -27 -248 l-25 -20 23 -9 c57 -22 92 -84 92
-166 0 -125 -67 -195 -201 -211 l-62 -7 0 -42 c0 -48 -10 -60 -60 -70 -52 -9
-90 22 -90 76 l0 39 -74 0 c-50 0 -77 4 -85 14 -8 9 -11 114 -9 367 l3 354 81
3 81 3 6 40 c3 22 11 46 17 54 16 20 80 19 108 -1z"/>
<path d="M5030 8359 l0 -81 86 3 c79 4 87 6 110 32 31 36 31 71 -1 102 -22 23
-32 25 -110 25 l-85 0 0 -81z"/>
<path d="M5027 8143 c-4 -3 -7 -39 -7 -80 l0 -73 38 0 c20 -1 54 -3 75 -6 22
-3 54 -3 73 1 89 16 101 116 19 151 -35 14 -186 20 -198 7z"/>
<path d="M4100 7140 c-9 -6 -10 -10 -3 -10 6 0 15 5 18 10 8 12 4 12 -15 0z"/>
<path d="M3368 7133 c6 -2 18 -2 25 0 6 3 1 5 -13 5 -14 0 -19 -2 -12 -5z"/>
<path d="M7528 7463 c6 -2 18 -2 25 0 6 3 1 5 -13 5 -14 0 -19 -2 -12 -5z"/>
<path d="M7313 7453 c9 -2 25 -2 35 0 9 3 1 5 -18 5 -19 0 -27 -2 -17 -5z"/>
<path d="M7856 6994 c-8 -22 -4 -25 11 -9 7 8 9 16 4 19 -5 3 -12 -1 -15 -10z"/>
<path d="M7879 6978 c-5 -18 -6 -38 -1 -34 7 8 12 36 6 36 -2 0 -4 -1 -5 -2z"/>
<path d="M7400 6839 c0 -5 5 -7 10 -4 6 3 10 8 10 11 0 2 -4 4 -10 4 -5 0 -10
-5 -10 -11z"/>
<path d="M4097 5697 c-3 -7 -2 -19 3 -26 5 -10 8 -9 13 2 3 7 2 19 -3 26 -5
10 -8 9 -13 -2z"/>
<path d="M6120 5485 c0 -8 5 -15 10 -15 6 0 10 7 10 15 0 8 -4 15 -10 15 -5 0
-10 -7 -10 -15z"/>
<path d="M4972 2375 c0 -16 2 -22 5 -12 2 9 2 23 0 30 -3 6 -5 -1 -5 -18z"/>
<path d="M2290 6991 c-7 -15 -7 -22 2 -27 7 -4 10 -4 6 1 -4 4 -3 16 3 26 5
11 7 19 5 19 -3 0 -10 -9 -16 -19z"/>
<path d="M7690 6796 c0 -2 7 -7 16 -10 8 -3 12 -2 9 4 -6 10 -25 14 -25 6z"/>
<path d="M7686 6763 c-6 -14 -5 -15 5 -6 7 7 10 15 7 18 -3 3 -9 -2 -12 -12z"/>
<path d="M2488 6452 c-26 -20 -47 -44 -47 -53 -1 -15 87 -92 104 -92 18 0 105
77 105 93 0 15 -94 91 -110 89 -3 0 -26 -17 -52 -37z"/>
<path d="M7540 6280 c-8 -5 -12 -11 -9 -14 2 -3 11 -1 19 4 8 5 12 11 9 14 -2
3 -11 1 -19 -4z"/>
<path d="M7405 6160 c-3 -5 -1 -10 4 -10 6 0 11 5 11 10 0 6 -2 10 -4 10 -3 0
-8 -4 -11 -10z"/>
<path d="M6976 5832 c-3 -5 1 -9 9 -9 8 0 12 4 9 9 -3 4 -7 8 -9 8 -2 0 -6 -4
-9 -8z"/>
<path d="M1770 5519 l0 -59 84 0 c95 0 96 1 93 75 l-2 40 -87 2 -88 2 0 -60z"/>
<path d="M2815 5500 c-3 -5 -2 -10 4 -10 5 0 13 5 16 10 3 6 2 10 -4 10 -5 0
-13 -4 -16 -10z"/>
<path d="M3044 5221 c-35 -21 -64 -75 -64 -118 0 -15 9 -42 20 -60 68 -113
240 -61 240 73 0 94 -114 155 -196 105z m156 -38 c16 -18 30 -44 30 -56 0 -18
-3 -16 -18 12 -19 38 -49 57 -107 67 -40 7 -40 7 -10 14 47 9 73 0 105 -37z"/>
<path d="M8151 4825 c-55 -17 -86 -47 -107 -101 -32 -84 -2 -182 71 -230 42
-27 124 -29 183 -4 58 25 66 43 60 135 l-3 50 -82 3 -83 3 0 -36 c0 -34 1 -35
40 -35 36 0 40 -3 40 -24 0 -30 -25 -40 -75 -30 -53 10 -75 38 -75 96 0 84 64
122 139 83 27 -13 30 -13 55 14 26 27 26 28 7 45 -21 19 -86 45 -111 45 -8 0
-35 -6 -59 -14z"/>
<path d="M6408 4650 l3 -180 87 0 c106 0 155 13 182 47 27 34 26 90 -1 119
-20 21 -20 24 -5 46 32 45 13 108 -39 133 -23 10 -63 15 -132 15 l-98 0 3
-180z m192 69 l0 -30 -52 3 c-49 3 -53 5 -56 31 -3 27 -2 27 52 27 56 0 56 0
56 -31z m-2 -108 c8 -4 12 -19 10 -32 -3 -21 -9 -24 -54 -27 -55 -3 -71 10
-59 49 5 15 16 19 48 19 23 0 48 -4 55 -9z"/>
<path d="M6778 4708 c-1 -68 -2 -148 -2 -178 l-1 -55 43 -3 42 -3 0 180 0 181
-40 0 -40 0 -2 -122z"/>
<path d="M6940 4650 l0 -180 120 0 120 0 0 40 0 39 -77 3 -78 3 -3 138 -3 137
-39 0 -40 0 0 -180z"/>
<path d="M7230 4650 l0 -180 120 0 120 0 0 40 0 39 -77 3 -78 3 -3 138 -3 137
-39 0 -40 0 0 -180z"/>
<path d="M7520 4651 l0 -181 45 0 45 0 -2 178 -3 177 -42 3 -43 3 0 -180z"/>
<path d="M7680 4650 l0 -180 40 0 40 0 0 91 c0 109 4 108 82 -13 49 -75 53
-78 90 -78 l38 0 0 180 0 180 -45 0 -45 0 0 -92 0 -92 -62 92 c-60 88 -65 91
-100 92 l-38 0 0 -180z"/>
<path d="M1551 4704 c0 -11 3 -14 6 -6 3 7 2 16 -1 19 -3 4 -6 -2 -5 -13z"/>
<path d="M2678 4324 c-25 -54 -25 -54 558 -54 471 0 534 2 548 16 9 8 16 19
16 24 0 5 -7 16 -16 24 -14 14 -78 16 -555 16 l-539 0 -12 -26z"/>
<path d="M2681 4118 c-11 -30 -5 -45 22 -52 12 -3 254 -6 538 -6 554 0 555 0
547 51 l-3 24 -548 3 -548 2 -8 -22z"/>
<path d="M2675 3830 c-16 -51 -23 -50 560 -50 585 0 582 0 555 49 -11 21 -15
21 -560 21 -544 0 -549 0 -555 -20z"/>
<path d="M2680 3581 c-13 -25 -13 -27 6 -45 14 -14 78 -16 554 -16 529 0 539
0 550 20 8 14 8 26 0 40 -11 20 -21 20 -555 20 -528 0 -545 -1 -555 -19z"/>
<path d="M2819 3374 c-9 -11 -10 -20 -2 -32 9 -15 49 -17 395 -20 373 -2 385
-2 403 18 14 16 15 22 5 35 -11 13 -66 15 -400 15 -341 0 -389 -2 -401 -16z"/>
<path d="M2465 3185 c-14 -13 -25 -36 -25 -50 0 -35 50 -85 85 -85 34 0 85 50
85 83 0 13 -9 36 -21 51 -28 36 -89 37 -124 1z"/>
<path d="M3083 3200 c-50 -21 -56 -79 -13 -122 26 -25 36 -29 63 -24 18 3 40
16 50 27 22 28 22 81 -1 102 -23 21 -70 29 -99 17z"/>
<path d="M3670 3203 c-65 -24 -68 -108 -6 -141 24 -12 76 2 94 25 43 58 -20
141 -88 116z"/>
<path d="M3435 3170 c-20 -38 -19 -52 6 -84 42 -53 129 -21 129 48 0 44 -26
66 -78 66 -36 0 -44 -4 -57 -30z"/>
<path d="M2688 3163 c-21 -5 -24 -43 -6 -61 8 -8 53 -12 138 -12 130 0 150 6
150 42 0 9 -9 22 -19 28 -19 10 -228 12 -263 3z"/>
<path d="M4264 4796 c4 -34 14 -44 22 -22 4 10 0 24 -9 33 -14 14 -15 13 -13
-11z"/>
<path d="M1892 3500 c-6 -11 -12 -25 -12 -32 1 -7 7 -2 15 12 8 14 14 19 15
11 0 -8 3 -12 6 -8 3 3 2 12 -3 21 -7 13 -10 13 -21 -4z"/>
<path d="M6735 3898 c-72 -13 -204 -80 -263 -133 -178 -160 -228 -436 -119
-665 42 -88 158 -204 247 -247 104 -50 98 -52 136 62 18 55 41 128 51 161 l19
62 -44 33 c-64 48 -84 89 -80 166 4 72 26 109 76 133 l32 15 0 213 c0 116 -1
211 -2 211 -2 -1 -25 -5 -53 -11z"/>
<path d="M7512 3218 l3 -73 183 -3 182 -2 0 75 0 75 -185 0 -186 0 3 -72z"/>
<path d="M7101 3168 c-31 -74 -120 -138 -192 -138 -11 0 -23 -28 -44 -102 -15
-57 -30 -109 -33 -115 -7 -20 122 -16 199 5 140 39 254 128 323 250 20 35 36
67 36 70 0 4 -55 20 -123 36 -67 16 -128 31 -134 33 -8 3 -20 -13 -32 -39z"/>
<path d="M7510 3011 c0 -58 3 -69 18 -73 11 -3 93 -3 185 0 l165 5 4 68 3 69
-187 0 -188 0 0 -69z"/>
<path d="M1711 3884 c0 -11 3 -14 6 -6 3 7 2 16 -1 19 -3 4 -6 -2 -5 -13z"/>
<path d="M1720 3853 c0 -15 19 -37 26 -31 3 4 -1 14 -10 23 -9 9 -16 13 -16 8z"/>
<path d="M8385 3740 c-3 -5 -1 -10 4 -10 6 0 11 5 11 10 0 6 -2 10 -4 10 -3 0
-8 -4 -11 -10z"/>
<path d="M4431 3024 c0 -11 3 -14 6 -6 3 7 2 16 -1 19 -3 4 -6 -2 -5 -13z"/>
<path d="M3670 2059 c0 -5 5 -7 10 -4 6 3 10 8 10 11 0 2 -4 4 -10 4 -5 0 -10
-5 -10 -11z"/>
<path d="M1510 7183 l0 -93 70 0 70 0 0 90 c0 65 -3 90 -12 90 -7 1 -39 2 -70
3 l-58 2 0 -92z"/>
<path d="M1753 7263 c-3 -7 -3 -47 0 -90 l4 -78 67 -3 66 -3 0 93 0 93 -66 0
c-43 0 -68 -4 -71 -12z"/>
<path d="M1568 6443 c7 -3 16 -2 19 1 4 3 -2 6 -13 5 -11 0 -14 -3 -6 -6z"/>
<path d="M1561 6404 c0 -11 3 -14 6 -6 3 7 2 16 -1 19 -3 4 -6 -2 -5 -13z"/>
<path d="M1562 6335 c0 -16 2 -22 5 -12 2 9 2 23 0 30 -3 6 -5 -1 -5 -18z"/>
</g>
</svg>
